<?xml version="1.0" encoding="iso-8859-1"?>
<!-- Generator: Adobe Illustrator 19.0.0, SVG Export Plug-In . SVG Version: 6.00 Build 0)  -->
<svg xmlns="http://www.w3.org/2000/svg" xmlns:xlink="http://www.w3.org/1999/xlink" version="1.1" id="Layer_1" x="0px" y="0px" viewBox="0 0 511.999 511.999" style="enable-background:new 0 0 511.999 511.999;" xml:space="preserve" width="512px" height="512px">
<g>
	<g>
		<path d="M362.464,42.436L337.002,0H174.998l-25.462,42.436H0v156.785h74.89v312.778h362.219V199.221h74.89V42.436H362.464z     M335.66,56.883l-35.767,49.671L278.329,88.52l47.189-48.539L335.66,56.883z M186.481,39.981L233.67,88.52l-21.564,18.034    l-35.767-49.671L186.481,39.981z M240.791,481.582H105.307V168.804h-74.89V72.853h119.939l56.176,78.016l34.259-28.652V481.582z     M219.605,30.417h72.789L256,67.853L219.605,30.417z M481.583,168.804L481.583,168.804h-74.89v312.778H271.209V122.217    l34.259,28.652l56.176-78.016h119.939V168.804z" fill="#D80027"/>
	</g>
</g>
<g>
	<g>
		<path d="M292.502,168.804v85.951h-0.001l46.45,30.149l46.45-30.149v-85.951H292.502z M354.983,238.235l-16.033,10.407    l-16.033-10.407v-39.014h0.001h32.065V238.235z" fill="#D80027"/>
	</g>
</g>
<g>
	<g>
		<path d="M126.6,168.804v85.951l46.45,30.149l46.449-30.149v-85.951H126.6z M189.081,238.235l-16.033,10.407l-16.033-10.407    v-39.014h0.001h32.065V238.235z" fill="#D80027"/>
	</g>
</g>
<g>
</g>
<g>
</g>
<g>
</g>
<g>
</g>
<g>
</g>
<g>
</g>
<g>
</g>
<g>
</g>
<g>
</g>
<g>
</g>
<g>
</g>
<g>
</g>
<g>
</g>
<g>
</g>
<g>
</g>
</svg>
