<?xml version="1.0" encoding="iso-8859-1"?>
<!-- Generator: Adobe Illustrator 19.0.0, SVG Export Plug-In . SVG Version: 6.00 Build 0)  -->
<svg version="1.1" id="Layer_1" xmlns="http://www.w3.org/2000/svg" xmlns:xlink="http://www.w3.org/1999/xlink" x="0px" y="0px"
	 viewBox="0 0 512.001 512.001" style="enable-background:new 0 0 512.001 512.001;" xml:space="preserve">
<g>
	<g>
		<polygon points="169.292,14.687 153.105,41.666 201.022,108.212 233.67,80.906 		"/>
	</g>
</g>
<g>
	<g>
		<polygon points="202.416,5.124 256,60.24 309.583,5.124 		"/>
	</g>
</g>
<g>
	<g>
		<polygon points="342.708,14.688 278.33,80.906 310.978,108.212 358.895,41.666 		"/>
	</g>
</g>
<g>
	<g>
		<polygon points="338.127,214.377 338.127,253.392 354.159,263.798 370.192,253.392 370.192,214.377 		"/>
	</g>
</g>
<g>
	<g>
		<path d="M394.684,44.018l-78.133,108.507l-45.342-37.922v392.274h165.902V194.099h74.89V44.018H394.684z M354.159,300.06
			l-46.45-30.15V183.96h92.899v85.951h0.001L354.159,300.06z"/>
	</g>
</g>
<g>
	<g>
		<polygon points="141.808,214.377 141.808,253.392 157.841,263.798 173.873,253.392 173.873,214.377 		"/>
	</g>
</g>
<g>
	<g>
		<path d="M195.45,152.526L117.316,44.018H0v150.081h74.89v312.778h165.902V114.604L195.45,152.526z M157.84,300.06l-46.45-30.15
			V183.96h92.899v85.951h0.001L157.84,300.06z"/>
	</g>
</g>
<g>
</g>
<g>
</g>
<g>
</g>
<g>
</g>
<g>
</g>
<g>
</g>
<g>
</g>
<g>
</g>
<g>
</g>
<g>
</g>
<g>
</g>
<g>
</g>
<g>
</g>
<g>
</g>
<g>
</g>
</svg>
